<svg width="74" height="60" viewBox="0 0 74 60" fill="none" xmlns="http://www.w3.org/2000/svg">
<g filter="url(#filter0_iiii_26_133)">
<path d="M0 5C0 2.23858 2.23858 0 5 0H69C71.7614 0 74 2.23858 74 5V55C74 57.7614 71.7614 60 69 60H5C2.23858 60 0 57.7614 0 55V5Z" fill="#1D1D1D"/>
</g>
<path d="M0.25 5C0.25 2.37665 2.37665 0.25 5 0.25H69C71.6234 0.25 73.75 2.37665 73.75 5V55C73.75 57.6234 71.6234 59.75 69 59.75H5C2.37665 59.75 0.25 57.6234 0.25 55V5Z" stroke="black" stroke-opacity="0.15" stroke-width="0.5"/>
<g filter="url(#filter1_f_26_133)">
<path d="M10 19C42.8 19 51 11 51 7" stroke="#00FF44" stroke-width="2"/>
</g>
<g filter="url(#filter2_f_26_133)">
<path d="M59.4235 14.8148C61.2312 18.0315 58.36 20 56.6841 20C54.5157 20 51.5274 17.4651 53.8317 14.8077C55.8268 12.5069 55.9398 10.8845 56.6841 9C57.6258 10.8845 57.7375 11.8148 59.4235 14.8148Z" fill="#00FF44"/>
</g>
<g filter="url(#filter3_f_26_133)">
<rect x="10" y="22" width="54" height="8" fill="#00FF44"/>
</g>
<g filter="url(#filter4_f_26_133)">
<path d="M4 40C4 38.8954 4.89543 38 6 38H68C69.1046 38 70 38.8954 70 40V52C70 53.1046 69.1046 54 68 54H6C4.89543 54 4 53.1046 4 52V40Z" fill="white" fill-opacity="0.9"/>
</g>
<path d="M6.0534 45V39.9091H8.00226C8.37016 39.9091 8.67591 39.9671 8.91952 40.0831C9.16479 40.1974 9.34791 40.354 9.46888 40.5529C9.59152 40.7518 9.65283 40.9772 9.65283 41.229C9.65283 41.4362 9.61306 41.6135 9.53351 41.761C9.45397 41.9068 9.34708 42.0253 9.21285 42.1165C9.07861 42.2076 8.92864 42.2731 8.76292 42.3129V42.3626C8.94355 42.3725 9.11673 42.428 9.28245 42.5291C9.44983 42.6286 9.58654 42.7694 9.6926 42.9517C9.79867 43.134 9.8517 43.3544 9.8517 43.6129C9.8517 43.8764 9.78789 44.1134 9.66029 44.3239C9.53269 44.5327 9.34045 44.6976 9.08359 44.8185C8.82672 44.9395 8.50357 45 8.11412 45H6.0534ZM6.97563 44.2294H7.96746C8.30222 44.2294 8.54334 44.1656 8.69083 44.038C8.83998 43.9087 8.91455 43.743 8.91455 43.5408C8.91455 43.39 8.87726 43.2541 8.80269 43.1332C8.72812 43.0105 8.62206 42.9144 8.48451 42.8448C8.34696 42.7736 8.1829 42.7379 7.99232 42.7379H6.97563V44.2294ZM6.97563 42.0742H7.88792C8.04701 42.0742 8.19036 42.0452 8.31796 41.9872C8.44556 41.9276 8.54582 41.8439 8.61874 41.7362C8.69332 41.6268 8.7306 41.4975 8.7306 41.3484C8.7306 41.1512 8.661 40.9888 8.5218 40.8612C8.38425 40.7335 8.17958 40.6697 7.9078 40.6697H6.97563V42.0742ZM11.2779 41.8754H12.5705C12.96 41.8754 13.2939 41.9392 13.5723 42.0668C13.8524 42.1927 14.067 42.3709 14.2161 42.6012C14.3653 42.8316 14.4399 43.1025 14.4399 43.4141C14.4399 43.7273 14.3653 44.0032 14.2161 44.2418C14.067 44.4788 13.8524 44.6644 13.5723 44.7987C13.2939 44.9329 12.96 45 12.5705 45H10.6639V39.9091H11.5886V44.2443H12.5705C12.776 44.2443 12.95 44.2054 13.0926 44.1275C13.2351 44.0496 13.3428 43.9469 13.4157 43.8192C13.4903 43.6916 13.5276 43.5533 13.5276 43.4041C13.5276 43.1887 13.4447 43.0056 13.279 42.8548C13.1149 42.7023 12.8788 42.6261 12.5705 42.6261H11.2779V41.8754ZM15.8046 39.9091V45H14.8798V39.9091H15.8046ZM16.8063 45V39.9091H20.0801V40.6822H17.7286V41.8754H18.7104C19.0999 41.8754 19.4338 41.9392 19.7122 42.0668C19.9923 42.1927 20.2069 42.3709 20.356 42.6012C20.5052 42.8316 20.5798 43.1025 20.5798 43.4141C20.5798 43.7273 20.5052 44.0032 20.356 44.2418C20.2069 44.4788 19.9923 44.6644 19.7122 44.7987C19.4338 44.9329 19.0999 45 18.7104 45H16.8063ZM17.7286 44.2443H18.7104C18.9159 44.2443 19.0899 44.2054 19.2325 44.1275C19.375 44.0496 19.4827 43.9469 19.5556 43.8192C19.6302 43.6916 19.6675 43.5533 19.6675 43.4041C19.6675 43.1887 19.5846 43.0056 19.4189 42.8548C19.2548 42.7023 19.0187 42.6261 18.7104 42.6261H17.7286V44.2443ZM21.3864 45V39.9091H23.2955C23.6866 39.9091 24.0147 39.982 24.2799 40.1278C24.5467 40.2737 24.748 40.4742 24.8839 40.7294C25.0215 40.983 25.0902 41.2713 25.0902 41.5945C25.0902 41.9209 25.0215 42.2109 24.8839 42.4645C24.7464 42.718 24.5434 42.9177 24.2749 43.0636C24.0064 43.2077 23.6758 43.2798 23.2831 43.2798H22.0178V42.5217H23.1588C23.3875 42.5217 23.5747 42.4819 23.7206 42.4023C23.8664 42.3228 23.9741 42.2134 24.0437 42.0742C24.115 41.935 24.1506 41.7751 24.1506 41.5945C24.1506 41.4138 24.115 41.2547 24.0437 41.1172C23.9741 40.9796 23.8656 40.8728 23.7181 40.7965C23.5723 40.7186 23.3842 40.6797 23.1538 40.6797H22.3086V45H21.3864ZM25.9777 45H24.9933L26.7856 39.9091H27.9241L29.7188 45H28.7344L27.3747 40.9531H27.3349L25.9777 45ZM26.01 43.0039H28.6946V43.7447H26.01V43.0039ZM30.3893 45V39.9091H31.3116V42.0643H33.6706V39.9091H34.5953V45H33.6706V42.8374H31.3116V45H30.3893ZM35.5983 45V39.9091H36.5206V42.0643H38.8796V39.9091H39.8043V45H38.8796V42.8374H36.5206V45H35.5983ZM41.4312 41.8754H42.7239C43.1133 41.8754 43.4472 41.9392 43.7256 42.0668C44.0057 42.1927 44.2203 42.3709 44.3695 42.6012C44.5186 42.8316 44.5932 43.1025 44.5932 43.4141C44.5932 43.7273 44.5186 44.0032 44.3695 44.2418C44.2203 44.4788 44.0057 44.6644 43.7256 44.7987C43.4472 44.9329 43.1133 45 42.7239 45H40.8172V39.9091H41.742V44.2443H42.7239C42.9293 44.2443 43.1034 44.2054 43.2459 44.1275C43.3884 44.0496 43.4961 43.9469 43.569 43.8192C43.6436 43.6916 43.6809 43.5533 43.6809 43.4041C43.6809 43.1887 43.598 43.0056 43.4323 42.8548C43.2682 42.7023 43.0321 42.6261 42.7239 42.6261H41.4312V41.8754ZM45.9579 39.9091V45H45.0332V39.9091H45.9579ZM46.9597 39.9091H47.8744V43.3793H47.9217L50.3155 39.9091H51.1432V45H50.221V41.5323H50.1788L47.7775 45H46.9597V39.9091ZM49.5449 38.5966H50.2185C50.2185 38.8866 50.1133 39.1219 49.9028 39.3026C49.694 39.4815 49.4106 39.571 49.0527 39.571C48.698 39.571 48.4155 39.4815 48.205 39.3026C47.9962 39.1219 47.8927 38.8866 47.8943 38.5966H48.563C48.563 38.7159 48.5994 38.8228 48.6724 38.9173C48.7469 39.0101 48.8737 39.0565 49.0527 39.0565C49.2284 39.0565 49.3535 39.0101 49.428 38.9173C49.5043 38.8245 49.5432 38.7176 49.5449 38.5966ZM53.6607 40.6822V39.9091H57.7225V40.6822H56.149V45H55.2342V40.6822H53.6607ZM58.5055 39.9091H59.4203V43.3793H59.4676L61.8614 39.9091H62.6891V45H61.7669V41.5323H61.7247L59.3234 45H58.5055V39.9091ZM67.8478 39.9091V45H66.933V40.6747H64.7057V45H63.791V39.9091H67.8478ZM31.1049 53L29.4295 50.7752H28.9771V53H28.0549V47.9091H28.9771V50.0021H29.2083L31.0179 47.9091H32.1539L30.1429 50.2308L32.2409 53H31.1049ZM32.5368 53V52.2344L32.6809 52.2269C32.8765 52.2153 33.0314 52.1449 33.1458 52.0156C33.2618 51.8864 33.3471 51.6784 33.4018 51.3917C33.4582 51.105 33.4954 50.7205 33.5137 50.2383L33.5982 47.9091H36.9341V53H36.0318V48.6673H34.4583L34.3787 50.5241C34.3555 51.081 34.2942 51.5425 34.1948 51.9087C34.097 52.275 33.9363 52.5484 33.7125 52.729C33.4905 52.9097 33.1814 53 32.7853 53H32.5368ZM37.9396 53V47.9091H41.2507V48.6822H38.8619V50.0643H41.0792V50.8374H38.8619V52.2269H41.2706V53H37.9396ZM45.9501 53H45.0254V48.6797H44.1802C43.9515 48.6797 43.7634 48.7137 43.6159 48.7816C43.4701 48.8479 43.3616 48.9457 43.2903 49.0749C43.2207 49.2025 43.1859 49.3567 43.1859 49.5373C43.1859 49.7179 43.2207 49.8704 43.2903 49.9947C43.3599 50.1173 43.4676 50.2109 43.6135 50.2756C43.7609 50.3385 43.9482 50.37 44.1752 50.37H45.4132V51.1357H44.051C43.6599 51.1357 43.3301 51.071 43.0616 50.9418C42.7931 50.8108 42.5893 50.6261 42.4501 50.3874C42.3126 50.1471 42.2438 49.8638 42.2438 49.5373C42.2438 49.2125 42.3117 48.9283 42.4476 48.6847C42.5852 48.4394 42.7873 48.2488 43.0542 48.1129C43.321 47.977 43.6491 47.9091 44.0385 47.9091H45.9501V53ZM43.3176 50.6932H44.3244L43.0865 53H42.0574L43.3176 50.6932Z" fill="black" fill-opacity="0.85"/>
<defs>
<filter id="filter0_iiii_26_133" x="-1" y="-3" width="76" height="66" filterUnits="userSpaceOnUse" color-interpolation-filters="sRGB">
<feFlood flood-opacity="0" result="BackgroundImageFix"/>
<feBlend mode="normal" in="SourceGraphic" in2="BackgroundImageFix" result="shape"/>
<feColorMatrix in="SourceAlpha" type="matrix" values="0 0 0 0 0 0 0 0 0 0 0 0 0 0 0 0 0 0 127 0" result="hardAlpha"/>
<feOffset dy="3"/>
<feGaussianBlur stdDeviation="2"/>
<feComposite in2="hardAlpha" operator="arithmetic" k2="-1" k3="1"/>
<feColorMatrix type="matrix" values="0 0 0 0 0.270588 0 0 0 0 0.262745 0 0 0 0 0.262745 0 0 0 1 0"/>
<feBlend mode="normal" in2="shape" result="effect1_innerShadow_26_133"/>
<feColorMatrix in="SourceAlpha" type="matrix" values="0 0 0 0 0 0 0 0 0 0 0 0 0 0 0 0 0 0 127 0" result="hardAlpha"/>
<feOffset dy="-3"/>
<feGaussianBlur stdDeviation="2"/>
<feComposite in2="hardAlpha" operator="arithmetic" k2="-1" k3="1"/>
<feColorMatrix type="matrix" values="0 0 0 0 0.270588 0 0 0 0 0.262745 0 0 0 0 0.262745 0 0 0 1 0"/>
<feBlend mode="normal" in2="effect1_innerShadow_26_133" result="effect2_innerShadow_26_133"/>
<feColorMatrix in="SourceAlpha" type="matrix" values="0 0 0 0 0 0 0 0 0 0 0 0 0 0 0 0 0 0 127 0" result="hardAlpha"/>
<feOffset dx="1"/>
<feGaussianBlur stdDeviation="2"/>
<feComposite in2="hardAlpha" operator="arithmetic" k2="-1" k3="1"/>
<feColorMatrix type="matrix" values="0 0 0 0 0.113725 0 0 0 0 0.113725 0 0 0 0 0.113725 0 0 0 1 0"/>
<feBlend mode="normal" in2="effect2_innerShadow_26_133" result="effect3_innerShadow_26_133"/>
<feColorMatrix in="SourceAlpha" type="matrix" values="0 0 0 0 0 0 0 0 0 0 0 0 0 0 0 0 0 0 127 0" result="hardAlpha"/>
<feOffset dx="-1"/>
<feGaussianBlur stdDeviation="2"/>
<feComposite in2="hardAlpha" operator="arithmetic" k2="-1" k3="1"/>
<feColorMatrix type="matrix" values="0 0 0 0 0.113725 0 0 0 0 0.113725 0 0 0 0 0.113725 0 0 0 1 0"/>
<feBlend mode="normal" in2="effect3_innerShadow_26_133" result="effect4_innerShadow_26_133"/>
</filter>
<filter id="filter1_f_26_133" x="9.9" y="6.9" width="42.2" height="13.2" filterUnits="userSpaceOnUse" color-interpolation-filters="sRGB">
<feFlood flood-opacity="0" result="BackgroundImageFix"/>
<feBlend mode="normal" in="SourceGraphic" in2="BackgroundImageFix" result="shape"/>
<feGaussianBlur stdDeviation="0.05" result="effect1_foregroundBlur_26_133"/>
</filter>
<filter id="filter2_f_26_133" x="52.9" y="8.9" width="7.2" height="11.2" filterUnits="userSpaceOnUse" color-interpolation-filters="sRGB">
<feFlood flood-opacity="0" result="BackgroundImageFix"/>
<feBlend mode="normal" in="SourceGraphic" in2="BackgroundImageFix" result="shape"/>
<feGaussianBlur stdDeviation="0.05" result="effect1_foregroundBlur_26_133"/>
</filter>
<filter id="filter3_f_26_133" x="9.9" y="21.9" width="54.2" height="8.2" filterUnits="userSpaceOnUse" color-interpolation-filters="sRGB">
<feFlood flood-opacity="0" result="BackgroundImageFix"/>
<feBlend mode="normal" in="SourceGraphic" in2="BackgroundImageFix" result="shape"/>
<feGaussianBlur stdDeviation="0.05" result="effect1_foregroundBlur_26_133"/>
</filter>
<filter id="filter4_f_26_133" x="3.9" y="37.9" width="66.2" height="16.2" filterUnits="userSpaceOnUse" color-interpolation-filters="sRGB">
<feFlood flood-opacity="0" result="BackgroundImageFix"/>
<feBlend mode="normal" in="SourceGraphic" in2="BackgroundImageFix" result="shape"/>
<feGaussianBlur stdDeviation="0.05" result="effect1_foregroundBlur_26_133"/>
</filter>
</defs>
</svg>
