<svg width="74" height="60" viewBox="0 0 74 60" fill="none" xmlns="http://www.w3.org/2000/svg">
<g filter="url(#filter0_iiii_24_114)">
<path d="M0 5C0 2.23858 2.23858 0 5 0H69C71.7614 0 74 2.23858 74 5V55C74 57.7614 71.7614 60 69 60H5C2.23858 60 0 57.7614 0 55V5Z" fill="#1D1D1D"/>
</g>
<path d="M0.25 5C0.25 2.37665 2.37665 0.25 5 0.25H69C71.6234 0.25 73.75 2.37665 73.75 5V55C73.75 57.6234 71.6234 59.75 69 59.75H5C2.37665 59.75 0.25 57.6234 0.25 55V5Z" stroke="black" stroke-opacity="0.15" stroke-width="0.5"/>
<g filter="url(#filter1_f_24_114)">
<path d="M10 19C42.8 19 51 11 51 7" stroke="#E0DEDC" stroke-width="2"/>
</g>
<g filter="url(#filter2_f_24_114)">
<path d="M59.4235 14.8148C61.2312 18.0315 58.36 20 56.6841 20C54.5157 20 51.5274 17.4651 53.8317 14.8077C55.8268 12.5069 55.9398 10.8845 56.6841 9C57.6258 10.8845 57.7375 11.8148 59.4235 14.8148Z" fill="#E0DEDC"/>
</g>
<g filter="url(#filter3_f_24_114)">
<rect x="10" y="22" width="54" height="8" fill="#E0DEDC"/>
</g>
<g filter="url(#filter4_f_24_114)">
<path d="M4 40C4 38.8954 4.89543 38 6 38H68C69.1046 38 70 38.8954 70 40V52C70 53.1046 69.1046 54 68 54H6C4.89543 54 4 53.1046 4 52V40Z" fill="white" fill-opacity="0.9"/>
</g>
<path d="M12.5886 45V39.9091H14.5374C14.9053 39.9091 15.2111 39.9671 15.4547 40.0831C15.6999 40.1974 15.8831 40.354 16.004 40.5529C16.1267 40.7518 16.188 40.9772 16.188 41.229C16.188 41.4362 16.1482 41.6135 16.0687 41.761C15.9891 41.9068 15.8822 42.0253 15.748 42.1165C15.6138 42.2076 15.4638 42.2731 15.2981 42.3129V42.3626C15.4787 42.3725 15.6519 42.428 15.8176 42.5291C15.985 42.6286 16.1217 42.7694 16.2278 42.9517C16.3338 43.134 16.3869 43.3544 16.3869 43.6129C16.3869 43.8764 16.3231 44.1134 16.1954 44.3239C16.0678 44.5327 15.8756 44.6976 15.6187 44.8185C15.3619 44.9395 15.0387 45 14.6493 45H12.5886ZM13.5108 44.2294H14.5026C14.8374 44.2294 15.0785 44.1656 15.226 44.038C15.3751 43.9087 15.4497 43.743 15.4497 43.5408C15.4497 43.39 15.4124 43.2541 15.3378 43.1332C15.2633 43.0105 15.1572 42.9144 15.0197 42.8448C14.8821 42.7736 14.7181 42.7379 14.5275 42.7379H13.5108V44.2294ZM13.5108 42.0742H14.4231C14.5822 42.0742 14.7255 42.0452 14.8531 41.9872C14.9807 41.9276 15.081 41.8439 15.1539 41.7362C15.2285 41.6268 15.2658 41.4975 15.2658 41.3484C15.2658 41.1512 15.1962 40.9888 15.057 40.8612C14.9194 40.7335 14.7147 40.6697 14.443 40.6697H13.5108V42.0742ZM17.8131 41.8754H19.1057C19.4951 41.8754 19.8291 41.9392 20.1075 42.0668C20.3875 42.1927 20.6021 42.3709 20.7513 42.6012C20.9004 42.8316 20.975 43.1025 20.975 43.4141C20.975 43.7273 20.9004 44.0032 20.7513 44.2418C20.6021 44.4788 20.3875 44.6644 20.1075 44.7987C19.8291 44.9329 19.4951 45 19.1057 45H17.1991V39.9091H18.1238V44.2443H19.1057C19.3112 44.2443 19.4852 44.2054 19.6277 44.1275C19.7702 44.0496 19.8779 43.9469 19.9509 43.8192C20.0254 43.6916 20.0627 43.5533 20.0627 43.4041C20.0627 43.1887 19.9799 43.0056 19.8141 42.8548C19.6501 42.7023 19.4139 42.6261 19.1057 42.6261H17.8131V41.8754ZM22.3397 39.9091V45H21.415V39.9091H22.3397ZM23.3415 45V39.9091H26.6153V40.6822H24.2637V41.8754H25.2456C25.635 41.8754 25.969 41.9392 26.2474 42.0668C26.5274 42.1927 26.7421 42.3709 26.8912 42.6012C27.0404 42.8316 27.1149 43.1025 27.1149 43.4141C27.1149 43.7273 27.0404 44.0032 26.8912 44.2418C26.7421 44.4788 26.5274 44.6644 26.2474 44.7987C25.969 44.9329 25.635 45 25.2456 45H23.3415ZM24.2637 44.2443H25.2456C25.4511 44.2443 25.6251 44.2054 25.7676 44.1275C25.9101 44.0496 26.0179 43.9469 26.0908 43.8192C26.1653 43.6916 26.2026 43.5533 26.2026 43.4041C26.2026 43.1887 26.1198 43.0056 25.9541 42.8548C25.79 42.7023 25.5538 42.6261 25.2456 42.6261H24.2637V44.2443ZM27.9216 45V39.9091H29.8307C30.2218 39.9091 30.5499 39.982 30.815 40.1278C31.0818 40.2737 31.2832 40.4742 31.4191 40.7294C31.5566 40.983 31.6254 41.2713 31.6254 41.5945C31.6254 41.9209 31.5566 42.2109 31.4191 42.4645C31.2815 42.718 31.0785 42.9177 30.8101 43.0636C30.5416 43.2077 30.211 43.2798 29.8182 43.2798H28.553V42.5217H29.6939C29.9226 42.5217 30.1099 42.4819 30.2557 42.4023C30.4016 42.3228 30.5093 42.2134 30.5789 42.0742C30.6501 41.935 30.6858 41.7751 30.6858 41.5945C30.6858 41.4138 30.6501 41.2547 30.5789 41.1172C30.5093 40.9796 30.4007 40.8728 30.2532 40.7965C30.1074 40.7186 29.9193 40.6797 29.689 40.6797H28.8438V45H27.9216ZM32.5128 45H31.5285L33.3207 39.9091H34.4592L36.254 45H35.2696L33.9098 40.9531H33.8701L32.5128 45ZM32.5451 43.0039H35.2298V43.7447H32.5451V43.0039ZM36.0855 40.6822V39.9091H40.1473V40.6822H38.5738V45H37.659V40.6822H36.0855ZM41.5543 41.8754H42.8469C43.2363 41.8754 43.5703 41.9392 43.8487 42.0668C44.1287 42.1927 44.3434 42.3709 44.4925 42.6012C44.6416 42.8316 44.7162 43.1025 44.7162 43.4141C44.7162 43.7273 44.6416 44.0032 44.4925 44.2418C44.3434 44.4788 44.1287 44.6644 43.8487 44.7987C43.5703 44.9329 43.2363 45 42.8469 45H40.9403V39.9091H41.865V44.2443H42.8469C43.0524 44.2443 43.2264 44.2054 43.3689 44.1275C43.5114 44.0496 43.6192 43.9469 43.6921 43.8192C43.7666 43.6916 43.8039 43.5533 43.8039 43.4041C43.8039 43.1887 43.7211 43.0056 43.5554 42.8548C43.3913 42.7023 43.1551 42.6261 42.8469 42.6261H41.5543V41.8754ZM47.1256 40.6822V39.9091H51.1874V40.6822H49.6139V45H48.6991V40.6822H47.1256ZM51.9704 39.9091H52.8852V43.3793H52.9324L55.3262 39.9091H56.154V45H55.2318V41.5323H55.1895L52.7882 45H51.9704V39.9091ZM61.3126 39.9091V45H60.3979V40.6747H58.1706V45H57.2558V39.9091H61.3126ZM31.1049 53L29.4295 50.7752H28.9771V53H28.0549V47.9091H28.9771V50.0021H29.2083L31.0179 47.9091H32.1539L30.1429 50.2308L32.2409 53H31.1049ZM32.5368 53V52.2344L32.6809 52.2269C32.8765 52.2153 33.0314 52.1449 33.1458 52.0156C33.2618 51.8864 33.3471 51.6784 33.4018 51.3917C33.4582 51.105 33.4954 50.7205 33.5137 50.2383L33.5982 47.9091H36.9341V53H36.0318V48.6673H34.4583L34.3787 50.5241C34.3555 51.081 34.2942 51.5425 34.1948 51.9087C34.097 52.275 33.9363 52.5484 33.7125 52.729C33.4905 52.9097 33.1814 53 32.7853 53H32.5368ZM37.9396 53V47.9091H41.2507V48.6822H38.8619V50.0643H41.0792V50.8374H38.8619V52.2269H41.2706V53H37.9396ZM45.9501 53H45.0254V48.6797H44.1802C43.9515 48.6797 43.7634 48.7137 43.6159 48.7816C43.4701 48.8479 43.3616 48.9457 43.2903 49.0749C43.2207 49.2025 43.1859 49.3567 43.1859 49.5373C43.1859 49.7179 43.2207 49.8704 43.2903 49.9947C43.3599 50.1173 43.4676 50.2109 43.6135 50.2756C43.7609 50.3385 43.9482 50.37 44.1752 50.37H45.4132V51.1357H44.051C43.6599 51.1357 43.3301 51.071 43.0616 50.9418C42.7931 50.8108 42.5893 50.6261 42.4501 50.3874C42.3126 50.1471 42.2438 49.8638 42.2438 49.5373C42.2438 49.2125 42.3117 48.9283 42.4476 48.6847C42.5852 48.4394 42.7873 48.2488 43.0542 48.1129C43.321 47.977 43.6491 47.9091 44.0385 47.9091H45.9501V53ZM43.3176 50.6932H44.3244L43.0865 53H42.0574L43.3176 50.6932Z" fill="black" fill-opacity="0.85"/>
<defs>
<filter id="filter0_iiii_24_114" x="-1" y="-3" width="76" height="66" filterUnits="userSpaceOnUse" color-interpolation-filters="sRGB">
<feFlood flood-opacity="0" result="BackgroundImageFix"/>
<feBlend mode="normal" in="SourceGraphic" in2="BackgroundImageFix" result="shape"/>
<feColorMatrix in="SourceAlpha" type="matrix" values="0 0 0 0 0 0 0 0 0 0 0 0 0 0 0 0 0 0 127 0" result="hardAlpha"/>
<feOffset dy="3"/>
<feGaussianBlur stdDeviation="2"/>
<feComposite in2="hardAlpha" operator="arithmetic" k2="-1" k3="1"/>
<feColorMatrix type="matrix" values="0 0 0 0 0.270588 0 0 0 0 0.262745 0 0 0 0 0.262745 0 0 0 1 0"/>
<feBlend mode="normal" in2="shape" result="effect1_innerShadow_24_114"/>
<feColorMatrix in="SourceAlpha" type="matrix" values="0 0 0 0 0 0 0 0 0 0 0 0 0 0 0 0 0 0 127 0" result="hardAlpha"/>
<feOffset dy="-3"/>
<feGaussianBlur stdDeviation="2"/>
<feComposite in2="hardAlpha" operator="arithmetic" k2="-1" k3="1"/>
<feColorMatrix type="matrix" values="0 0 0 0 0.270588 0 0 0 0 0.262745 0 0 0 0 0.262745 0 0 0 1 0"/>
<feBlend mode="normal" in2="effect1_innerShadow_24_114" result="effect2_innerShadow_24_114"/>
<feColorMatrix in="SourceAlpha" type="matrix" values="0 0 0 0 0 0 0 0 0 0 0 0 0 0 0 0 0 0 127 0" result="hardAlpha"/>
<feOffset dx="1"/>
<feGaussianBlur stdDeviation="2"/>
<feComposite in2="hardAlpha" operator="arithmetic" k2="-1" k3="1"/>
<feColorMatrix type="matrix" values="0 0 0 0 0.113725 0 0 0 0 0.113725 0 0 0 0 0.113725 0 0 0 1 0"/>
<feBlend mode="normal" in2="effect2_innerShadow_24_114" result="effect3_innerShadow_24_114"/>
<feColorMatrix in="SourceAlpha" type="matrix" values="0 0 0 0 0 0 0 0 0 0 0 0 0 0 0 0 0 0 127 0" result="hardAlpha"/>
<feOffset dx="-1"/>
<feGaussianBlur stdDeviation="2"/>
<feComposite in2="hardAlpha" operator="arithmetic" k2="-1" k3="1"/>
<feColorMatrix type="matrix" values="0 0 0 0 0.113725 0 0 0 0 0.113725 0 0 0 0 0.113725 0 0 0 1 0"/>
<feBlend mode="normal" in2="effect3_innerShadow_24_114" result="effect4_innerShadow_24_114"/>
</filter>
<filter id="filter1_f_24_114" x="9.9" y="6.9" width="42.2" height="13.2" filterUnits="userSpaceOnUse" color-interpolation-filters="sRGB">
<feFlood flood-opacity="0" result="BackgroundImageFix"/>
<feBlend mode="normal" in="SourceGraphic" in2="BackgroundImageFix" result="shape"/>
<feGaussianBlur stdDeviation="0.05" result="effect1_foregroundBlur_24_114"/>
</filter>
<filter id="filter2_f_24_114" x="52.9" y="8.9" width="7.2" height="11.2" filterUnits="userSpaceOnUse" color-interpolation-filters="sRGB">
<feFlood flood-opacity="0" result="BackgroundImageFix"/>
<feBlend mode="normal" in="SourceGraphic" in2="BackgroundImageFix" result="shape"/>
<feGaussianBlur stdDeviation="0.05" result="effect1_foregroundBlur_24_114"/>
</filter>
<filter id="filter3_f_24_114" x="9.9" y="21.9" width="54.2" height="8.2" filterUnits="userSpaceOnUse" color-interpolation-filters="sRGB">
<feFlood flood-opacity="0" result="BackgroundImageFix"/>
<feBlend mode="normal" in="SourceGraphic" in2="BackgroundImageFix" result="shape"/>
<feGaussianBlur stdDeviation="0.05" result="effect1_foregroundBlur_24_114"/>
</filter>
<filter id="filter4_f_24_114" x="3.9" y="37.9" width="66.2" height="16.2" filterUnits="userSpaceOnUse" color-interpolation-filters="sRGB">
<feFlood flood-opacity="0" result="BackgroundImageFix"/>
<feBlend mode="normal" in="SourceGraphic" in2="BackgroundImageFix" result="shape"/>
<feGaussianBlur stdDeviation="0.05" result="effect1_foregroundBlur_24_114"/>
</filter>
</defs>
</svg>
