<svg width="118" height="118" viewBox="0 0 118 118" fill="none" xmlns="http://www.w3.org/2000/svg">
<g filter="url(#filter0_f_61_914)">
<circle cx="59" cy="59" r="51" fill="#FF0000"/>
</g>
<g filter="url(#filter1_f_61_914)">
<path d="M98 59C98 80.5391 80.5391 98 59 98C37.4609 98 20 80.5391 20 59C20 37.4609 37.4609 20 59 20C80.5391 20 98 37.4609 98 59Z" fill="#454444"/>
<path d="M97.5 59C97.5 80.263 80.263 97.5 59 97.5C37.737 97.5 20.5 80.263 20.5 59C20.5 37.737 37.737 20.5 59 20.5C80.263 20.5 97.5 37.737 97.5 59Z" stroke="#FE8181" stroke-opacity="0.15"/>
</g>
<g filter="url(#filter2_iif_61_914)">
<circle cx="59" cy="59" r="37" fill="#FF0000"/>
<circle cx="59" cy="59" r="36.5" stroke="#FF0000" stroke-opacity="0.15"/>
</g>
<circle cx="59" cy="59" r="25" fill="#FFFBFB"/>
<circle cx="59" cy="59" r="20" fill="#FF0000"/>
<defs>
<filter id="filter0_f_61_914" x="0" y="0" width="118" height="118" filterUnits="userSpaceOnUse" color-interpolation-filters="sRGB">
<feFlood flood-opacity="0" result="BackgroundImageFix"/>
<feBlend mode="normal" in="SourceGraphic" in2="BackgroundImageFix" result="shape"/>
<feGaussianBlur stdDeviation="4" result="effect1_foregroundBlur_61_914"/>
</filter>
<filter id="filter1_f_61_914" x="16" y="16" width="86" height="86" filterUnits="userSpaceOnUse" color-interpolation-filters="sRGB">
<feFlood flood-opacity="0" result="BackgroundImageFix"/>
<feBlend mode="normal" in="SourceGraphic" in2="BackgroundImageFix" result="shape"/>
<feGaussianBlur stdDeviation="2" result="effect1_foregroundBlur_61_914"/>
</filter>
<filter id="filter2_iif_61_914" x="19" y="19" width="80" height="80" filterUnits="userSpaceOnUse" color-interpolation-filters="sRGB">
<feFlood flood-opacity="0" result="BackgroundImageFix"/>
<feBlend mode="normal" in="SourceGraphic" in2="BackgroundImageFix" result="shape"/>
<feColorMatrix in="SourceAlpha" type="matrix" values="0 0 0 0 0 0 0 0 0 0 0 0 0 0 0 0 0 0 127 0" result="hardAlpha"/>
<feOffset dx="3" dy="3"/>
<feGaussianBlur stdDeviation="2.5"/>
<feComposite in2="hardAlpha" operator="arithmetic" k2="-1" k3="1"/>
<feColorMatrix type="matrix" values="0 0 0 0 0 0 0 0 0 0 0 0 0 0 0 0 0 0 0.25 0"/>
<feBlend mode="normal" in2="shape" result="effect1_innerShadow_61_914"/>
<feColorMatrix in="SourceAlpha" type="matrix" values="0 0 0 0 0 0 0 0 0 0 0 0 0 0 0 0 0 0 127 0" result="hardAlpha"/>
<feOffset dx="-3" dy="-3"/>
<feGaussianBlur stdDeviation="2.5"/>
<feComposite in2="hardAlpha" operator="arithmetic" k2="-1" k3="1"/>
<feColorMatrix type="matrix" values="0 0 0 0 0 0 0 0 0 0 0 0 0 0 0 0 0 0 0.25 0"/>
<feBlend mode="normal" in2="effect1_innerShadow_61_914" result="effect2_innerShadow_61_914"/>
<feGaussianBlur stdDeviation="0.5" result="effect3_foregroundBlur_61_914"/>
</filter>
</defs>
</svg>
