<svg width="76" height="76" viewBox="0 0 76 76" fill="none" xmlns="http://www.w3.org/2000/svg">
<g filter="url(#filter0_f_19_36)">
<circle cx="38" cy="38" r="37" fill="#D9D2D2"/>
</g>
<g filter="url(#filter1_iiii_19_36)">
<path d="M73 38C73 57.33 57.33 73 38 73C18.67 73 3 57.33 3 38C3 18.67 18.67 2.99999 38 2.99999C57.33 2.99999 73 18.67 73 38Z" fill="#0F0F0F"/>
</g>
<path d="M72.75 38C72.75 57.1919 57.1919 72.75 38 72.75C18.8081 72.75 3.25 57.1919 3.25 38C3.25 18.8081 18.8081 3.24999 38 3.24999C57.1919 3.24999 72.75 18.8081 72.75 38Z" stroke="#2F2E2E" stroke-opacity="0.1" stroke-width="0.5"/>
<path d="M15.2 43.24H14.704L14.56 39.784H15.056C15.248 40.52 15.472 41.0853 15.728 41.48C15.984 41.864 16.2987 42.1307 16.672 42.28C17.056 42.4187 17.52 42.488 18.064 42.488C18.4693 42.488 18.816 42.4347 19.104 42.328C19.392 42.2107 19.616 42.0293 19.776 41.784C19.936 41.528 20.016 41.1973 20.016 40.792C20.016 40.3227 19.8827 39.9333 19.616 39.624C19.36 39.3147 19.0293 39.0427 18.624 38.808C18.2187 38.5627 17.7973 38.3173 17.36 38.072C16.9333 37.8267 16.5227 37.5653 16.128 37.288C15.7333 37.0107 15.408 36.68 15.152 36.296C14.9067 35.912 14.784 35.4427 14.784 34.888C14.784 34.3227 14.9227 33.8533 15.2 33.48C15.4773 33.096 15.8453 32.8027 16.304 32.6C16.7627 32.3973 17.2693 32.296 17.824 32.296C18.3147 32.296 18.6933 32.3387 18.96 32.424C19.2267 32.4987 19.4347 32.5787 19.584 32.664C19.744 32.7493 19.888 32.792 20.016 32.792C20.144 32.792 20.2453 32.76 20.32 32.696C20.4053 32.6213 20.4693 32.4987 20.512 32.328H20.928L21.04 35.528H20.56C20.336 34.6427 20.0373 33.9867 19.664 33.56C19.2907 33.1333 18.6987 32.9253 17.888 32.936C17.344 32.936 16.9227 33.064 16.624 33.32C16.3253 33.5653 16.176 33.9387 16.176 34.44C16.176 34.8347 16.288 35.176 16.512 35.464C16.736 35.7413 17.0293 35.992 17.392 36.216C17.7547 36.44 18.1333 36.6693 18.528 36.904C18.88 37.1067 19.232 37.3093 19.584 37.512C19.9467 37.7147 20.272 37.944 20.56 38.2C20.8587 38.456 21.0933 38.7547 21.264 39.096C21.4453 39.4373 21.536 39.848 21.536 40.328C21.536 40.9467 21.392 41.4693 21.104 41.896C20.8267 42.3227 20.4427 42.648 19.952 42.872C19.4613 43.0853 18.9067 43.192 18.288 43.192C17.7333 43.192 17.28 43.1493 16.928 43.064C16.5867 42.9893 16.3147 42.9147 16.112 42.84C15.92 42.7547 15.76 42.712 15.632 42.712C15.5253 42.712 15.4293 42.76 15.344 42.856C15.2587 42.952 15.2107 43.08 15.2 43.24ZM29.0583 43H24.4183V42.52C24.8663 42.52 25.2023 42.488 25.4263 42.424C25.6503 42.3493 25.7996 42.2 25.8743 41.976C25.9489 41.7413 25.9863 41.384 25.9863 40.904V33.208H24.9623C24.3756 33.208 23.9329 33.2667 23.6343 33.384C23.3463 33.5013 23.1383 33.7147 23.0103 34.024C22.8823 34.3333 22.7596 34.7813 22.6423 35.368H22.1463L22.3223 32.488H31.1703L31.2983 35.368H30.8023C30.6849 34.7813 30.5623 34.3333 30.4343 34.024C30.3063 33.7147 30.0983 33.5013 29.8103 33.384C29.5223 33.2667 29.0796 33.208 28.4823 33.208H27.4743V40.904C27.4743 41.384 27.5116 41.7413 27.5863 41.976C27.6609 42.2 27.8103 42.3493 28.0343 42.424C28.2583 42.488 28.5996 42.52 29.0583 42.52V43ZM34.0018 43H30.6418V42.52C30.9404 42.52 31.1804 42.472 31.3618 42.376C31.5431 42.28 31.7191 42.088 31.8898 41.8C32.0604 41.5013 32.2738 41.048 32.5298 40.44L35.9218 32.408H36.5778L40.3698 41.096C40.6044 41.6187 40.8284 41.9867 41.0418 42.2C41.2658 42.4133 41.5911 42.52 42.0178 42.52V43H37.7138V42.52C37.8738 42.52 38.0391 42.5093 38.2098 42.488C38.3804 42.4667 38.5244 42.4133 38.6418 42.328C38.7591 42.2427 38.8177 42.1093 38.8177 41.928C38.8177 41.8107 38.7964 41.6773 38.7538 41.528C38.7218 41.368 38.6524 41.1707 38.5458 40.936L37.8578 39.336L37.7458 39.016L35.9218 34.376H35.8738L34.0018 39.016L33.8898 39.336L33.1058 41.192C33.0631 41.32 33.0204 41.448 32.9778 41.576C32.9458 41.6933 32.9298 41.8267 32.9298 41.976C32.9298 42.2 33.0151 42.3493 33.1858 42.424C33.3564 42.488 33.6284 42.52 34.0018 42.52V43ZM38.0978 39.496H33.6498L33.8898 38.856H37.8578L38.0978 39.496ZM47.2621 43H42.7661V42.52C43.1715 42.52 43.4755 42.488 43.6781 42.424C43.8808 42.36 44.0141 42.2213 44.0781 42.008C44.1528 41.7947 44.1901 41.464 44.1901 41.016V34.152C44.1901 33.8533 44.1581 33.6187 44.0941 33.448C44.0408 33.2773 43.9128 33.1547 43.7101 33.08C43.5075 33.0053 43.1928 32.968 42.7661 32.968V32.488H46.7021C47.5021 32.488 48.2115 32.568 48.8301 32.728C49.4595 32.8773 49.9501 33.144 50.3021 33.528C50.6541 33.9013 50.8301 34.4293 50.8301 35.112C50.8301 35.7093 50.6915 36.1947 50.4141 36.568C50.1475 36.9413 49.8061 37.2347 49.3901 37.448C48.9848 37.6507 48.5635 37.8053 48.1261 37.912V37.976C48.3075 38.0827 48.5101 38.2693 48.7341 38.536C48.9688 38.792 49.2675 39.176 49.6301 39.688C49.9928 40.1893 50.4675 40.8613 51.0541 41.704C51.3101 42.056 51.5555 42.28 51.7901 42.376C52.0355 42.472 52.3395 42.52 52.7021 42.52V43H50.0621C49.6248 42.3387 49.2568 41.7893 48.9581 41.352C48.6701 40.904 48.4248 40.5307 48.2221 40.232C48.0195 39.9227 47.8381 39.6507 47.6781 39.416C47.5181 39.1813 47.3581 38.9467 47.1981 38.712C47.0381 38.4667 46.8888 38.3173 46.7501 38.264C46.6221 38.2107 46.4141 38.184 46.1261 38.184H45.6781V41.016C45.6781 41.4533 45.7155 41.784 45.7901 42.008C45.8648 42.2213 46.0141 42.36 46.2381 42.424C46.4621 42.488 46.8035 42.52 47.2621 42.52V43ZM45.6781 37.56L46.2861 37.576C46.8728 37.544 47.3848 37.448 47.8221 37.288C48.2595 37.128 48.6008 36.8773 48.8461 36.536C49.0915 36.1947 49.2141 35.7413 49.2141 35.176C49.2141 34.536 49.0168 34.0347 48.6221 33.672C48.2275 33.2987 47.5981 33.112 46.7341 33.112C46.5635 33.112 46.3875 33.1173 46.2061 33.128C46.0248 33.128 45.8488 33.1387 45.6781 33.16V37.56ZM59.2926 43H54.6526V42.52C55.1006 42.52 55.4366 42.488 55.6606 42.424C55.8846 42.3493 56.034 42.2 56.1086 41.976C56.1833 41.7413 56.2206 41.384 56.2206 40.904V33.208H55.1966C54.61 33.208 54.1673 33.2667 53.8686 33.384C53.5806 33.5013 53.3726 33.7147 53.2446 34.024C53.1166 34.3333 52.994 34.7813 52.8766 35.368H52.3806L52.5566 32.488H61.4046L61.5326 35.368H61.0366C60.9193 34.7813 60.7966 34.3333 60.6686 34.024C60.5406 33.7147 60.3326 33.5013 60.0446 33.384C59.7566 33.2667 59.314 33.208 58.7166 33.208H57.7086V40.904C57.7086 41.384 57.746 41.7413 57.8206 41.976C57.8953 42.2 58.0446 42.3493 58.2686 42.424C58.4926 42.488 58.834 42.52 59.2926 42.52V43Z" fill="#E0DEDC"/>
<defs>
<filter id="filter0_f_19_36" x="0" y="0" width="76" height="76" filterUnits="userSpaceOnUse" color-interpolation-filters="sRGB">
<feFlood flood-opacity="0" result="BackgroundImageFix"/>
<feBlend mode="normal" in="SourceGraphic" in2="BackgroundImageFix" result="shape"/>
<feGaussianBlur stdDeviation="0.5" result="effect1_foregroundBlur_19_36"/>
</filter>
<filter id="filter1_iiii_19_36" x="0" y="-1.14441e-05" width="76" height="76" filterUnits="userSpaceOnUse" color-interpolation-filters="sRGB">
<feFlood flood-opacity="0" result="BackgroundImageFix"/>
<feBlend mode="normal" in="SourceGraphic" in2="BackgroundImageFix" result="shape"/>
<feColorMatrix in="SourceAlpha" type="matrix" values="0 0 0 0 0 0 0 0 0 0 0 0 0 0 0 0 0 0 127 0" result="hardAlpha"/>
<feOffset dx="-3"/>
<feGaussianBlur stdDeviation="2"/>
<feComposite in2="hardAlpha" operator="arithmetic" k2="-1" k3="1"/>
<feColorMatrix type="matrix" values="0 0 0 0 0.270833 0 0 0 0 0.264062 0 0 0 0 0.264062 0 0 0 1 0"/>
<feBlend mode="normal" in2="shape" result="effect1_innerShadow_19_36"/>
<feColorMatrix in="SourceAlpha" type="matrix" values="0 0 0 0 0 0 0 0 0 0 0 0 0 0 0 0 0 0 127 0" result="hardAlpha"/>
<feOffset dy="3"/>
<feGaussianBlur stdDeviation="2"/>
<feComposite in2="hardAlpha" operator="arithmetic" k2="-1" k3="1"/>
<feColorMatrix type="matrix" values="0 0 0 0 0.270588 0 0 0 0 0.262745 0 0 0 0 0.262745 0 0 0 1 0"/>
<feBlend mode="normal" in2="effect1_innerShadow_19_36" result="effect2_innerShadow_19_36"/>
<feColorMatrix in="SourceAlpha" type="matrix" values="0 0 0 0 0 0 0 0 0 0 0 0 0 0 0 0 0 0 127 0" result="hardAlpha"/>
<feOffset dy="-3"/>
<feGaussianBlur stdDeviation="2"/>
<feComposite in2="hardAlpha" operator="arithmetic" k2="-1" k3="1"/>
<feColorMatrix type="matrix" values="0 0 0 0 0.270588 0 0 0 0 0.262745 0 0 0 0 0.262745 0 0 0 1 0"/>
<feBlend mode="normal" in2="effect2_innerShadow_19_36" result="effect3_innerShadow_19_36"/>
<feColorMatrix in="SourceAlpha" type="matrix" values="0 0 0 0 0 0 0 0 0 0 0 0 0 0 0 0 0 0 127 0" result="hardAlpha"/>
<feOffset dx="3"/>
<feGaussianBlur stdDeviation="2"/>
<feComposite in2="hardAlpha" operator="arithmetic" k2="-1" k3="1"/>
<feColorMatrix type="matrix" values="0 0 0 0 0.270588 0 0 0 0 0.262745 0 0 0 0 0.262745 0 0 0 1 0"/>
<feBlend mode="normal" in2="effect3_innerShadow_19_36" result="effect4_innerShadow_19_36"/>
</filter>
</defs>
</svg>
