<svg width="86" height="86" viewBox="0 0 86 86" fill="none" xmlns="http://www.w3.org/2000/svg">
<g filter="url(#filter0_f_61_920)">
<circle cx="43" cy="43" r="40" fill="#00FF44"/>
</g>
<g filter="url(#filter1_iiii_61_920)">
<path d="M78 43C78 62.33 62.33 78 43 78C23.67 78 8 62.33 8 43C8 23.67 23.67 7.99999 43 7.99999C62.33 7.99999 78 23.67 78 43Z" fill="#0F0F0F"/>
</g>
<path d="M77.75 43C77.75 62.1919 62.1919 77.75 43 77.75C23.8081 77.75 8.25 62.1919 8.25 43C8.25 23.8081 23.8081 8.24999 43 8.24999C62.1919 8.24999 77.75 23.8081 77.75 43Z" stroke="#2F2E2E" stroke-opacity="0.1" stroke-width="0.5"/>
<g filter="url(#filter2_f_61_920)">
<path d="M20.2 48.24H19.704L19.56 44.784H20.056C20.248 45.52 20.472 46.0853 20.728 46.48C20.984 46.864 21.2987 47.1307 21.672 47.28C22.056 47.4187 22.52 47.488 23.064 47.488C23.4693 47.488 23.816 47.4347 24.104 47.328C24.392 47.2107 24.616 47.0293 24.776 46.784C24.936 46.528 25.016 46.1973 25.016 45.792C25.016 45.3227 24.8827 44.9333 24.616 44.624C24.36 44.3147 24.0293 44.0427 23.624 43.808C23.2187 43.5627 22.7973 43.3173 22.36 43.072C21.9333 42.8267 21.5227 42.5653 21.128 42.288C20.7333 42.0107 20.408 41.68 20.152 41.296C19.9067 40.912 19.784 40.4427 19.784 39.888C19.784 39.3227 19.9227 38.8533 20.2 38.48C20.4773 38.096 20.8453 37.8027 21.304 37.6C21.7627 37.3973 22.2693 37.296 22.824 37.296C23.3147 37.296 23.6933 37.3387 23.96 37.424C24.2267 37.4987 24.4347 37.5787 24.584 37.664C24.744 37.7493 24.888 37.792 25.016 37.792C25.144 37.792 25.2453 37.76 25.32 37.696C25.4053 37.6213 25.4693 37.4987 25.512 37.328H25.928L26.04 40.528H25.56C25.336 39.6427 25.0373 38.9867 24.664 38.56C24.2907 38.1333 23.6987 37.9253 22.888 37.936C22.344 37.936 21.9227 38.064 21.624 38.32C21.3253 38.5653 21.176 38.9387 21.176 39.44C21.176 39.8347 21.288 40.176 21.512 40.464C21.736 40.7413 22.0293 40.992 22.392 41.216C22.7547 41.44 23.1333 41.6693 23.528 41.904C23.88 42.1067 24.232 42.3093 24.584 42.512C24.9467 42.7147 25.272 42.944 25.56 43.2C25.8587 43.456 26.0933 43.7547 26.264 44.096C26.4453 44.4373 26.536 44.848 26.536 45.328C26.536 45.9467 26.392 46.4693 26.104 46.896C25.8267 47.3227 25.4427 47.648 24.952 47.872C24.4613 48.0853 23.9067 48.192 23.288 48.192C22.7333 48.192 22.28 48.1493 21.928 48.064C21.5867 47.9893 21.3147 47.9147 21.112 47.84C20.92 47.7547 20.76 47.712 20.632 47.712C20.5253 47.712 20.4293 47.76 20.344 47.856C20.2587 47.952 20.2107 48.08 20.2 48.24ZM34.0583 48H29.4183V47.52C29.8663 47.52 30.2023 47.488 30.4263 47.424C30.6503 47.3493 30.7996 47.2 30.8743 46.976C30.9489 46.7413 30.9863 46.384 30.9863 45.904V38.208H29.9623C29.3756 38.208 28.9329 38.2667 28.6343 38.384C28.3463 38.5013 28.1383 38.7147 28.0103 39.024C27.8823 39.3333 27.7596 39.7813 27.6423 40.368H27.1463L27.3223 37.488H36.1703L36.2983 40.368H35.8023C35.6849 39.7813 35.5623 39.3333 35.4343 39.024C35.3063 38.7147 35.0983 38.5013 34.8103 38.384C34.5223 38.2667 34.0796 38.208 33.4823 38.208H32.4743V45.904C32.4743 46.384 32.5116 46.7413 32.5863 46.976C32.6609 47.2 32.8103 47.3493 33.0343 47.424C33.2583 47.488 33.5996 47.52 34.0583 47.52V48ZM39.0018 48H35.6418V47.52C35.9404 47.52 36.1804 47.472 36.3618 47.376C36.5431 47.28 36.7191 47.088 36.8898 46.8C37.0604 46.5013 37.2738 46.048 37.5298 45.44L40.9218 37.408H41.5778L45.3698 46.096C45.6044 46.6187 45.8284 46.9867 46.0418 47.2C46.2658 47.4133 46.5911 47.52 47.0178 47.52V48H42.7138V47.52C42.8738 47.52 43.0391 47.5093 43.2098 47.488C43.3804 47.4667 43.5244 47.4133 43.6418 47.328C43.7591 47.2427 43.8177 47.1093 43.8177 46.928C43.8177 46.8107 43.7964 46.6773 43.7538 46.528C43.7218 46.368 43.6524 46.1707 43.5458 45.936L42.8578 44.336L42.7458 44.016L40.9218 39.376H40.8738L39.0018 44.016L38.8898 44.336L38.1058 46.192C38.0631 46.32 38.0204 46.448 37.9778 46.576C37.9458 46.6933 37.9298 46.8267 37.9298 46.976C37.9298 47.2 38.0151 47.3493 38.1858 47.424C38.3564 47.488 38.6284 47.52 39.0018 47.52V48ZM43.0978 44.496H38.6498L38.8898 43.856H42.8578L43.0978 44.496ZM52.2621 48H47.7661V47.52C48.1715 47.52 48.4755 47.488 48.6781 47.424C48.8808 47.36 49.0141 47.2213 49.0781 47.008C49.1528 46.7947 49.1901 46.464 49.1901 46.016V39.152C49.1901 38.8533 49.1581 38.6187 49.0941 38.448C49.0408 38.2773 48.9128 38.1547 48.7101 38.08C48.5075 38.0053 48.1928 37.968 47.7661 37.968V37.488H51.7021C52.5021 37.488 53.2115 37.568 53.8301 37.728C54.4595 37.8773 54.9501 38.144 55.3021 38.528C55.6541 38.9013 55.8301 39.4293 55.8301 40.112C55.8301 40.7093 55.6915 41.1947 55.4141 41.568C55.1475 41.9413 54.8061 42.2347 54.3901 42.448C53.9848 42.6507 53.5635 42.8053 53.1261 42.912V42.976C53.3075 43.0827 53.5101 43.2693 53.7341 43.536C53.9688 43.792 54.2675 44.176 54.6301 44.688C54.9928 45.1893 55.4675 45.8613 56.0541 46.704C56.3101 47.056 56.5555 47.28 56.7901 47.376C57.0355 47.472 57.3395 47.52 57.7021 47.52V48H55.0621C54.6248 47.3387 54.2568 46.7893 53.9581 46.352C53.6701 45.904 53.4248 45.5307 53.2221 45.232C53.0195 44.9227 52.8381 44.6507 52.6781 44.416C52.5181 44.1813 52.3581 43.9467 52.1981 43.712C52.0381 43.4667 51.8888 43.3173 51.7501 43.264C51.6221 43.2107 51.4141 43.184 51.1261 43.184H50.6781V46.016C50.6781 46.4533 50.7155 46.784 50.7901 47.008C50.8648 47.2213 51.0141 47.36 51.2381 47.424C51.4621 47.488 51.8035 47.52 52.2621 47.52V48ZM50.6781 42.56L51.2861 42.576C51.8728 42.544 52.3848 42.448 52.8221 42.288C53.2595 42.128 53.6008 41.8773 53.8461 41.536C54.0915 41.1947 54.2141 40.7413 54.2141 40.176C54.2141 39.536 54.0168 39.0347 53.6221 38.672C53.2275 38.2987 52.5981 38.112 51.7341 38.112C51.5635 38.112 51.3875 38.1173 51.2061 38.128C51.0248 38.128 50.8488 38.1387 50.6781 38.16V42.56ZM64.2926 48H59.6526V47.52C60.1006 47.52 60.4366 47.488 60.6606 47.424C60.8846 47.3493 61.034 47.2 61.1086 46.976C61.1833 46.7413 61.2206 46.384 61.2206 45.904V38.208H60.1966C59.61 38.208 59.1673 38.2667 58.8686 38.384C58.5806 38.5013 58.3726 38.7147 58.2446 39.024C58.1166 39.3333 57.994 39.7813 57.8766 40.368H57.3806L57.5566 37.488H66.4046L66.5326 40.368H66.0366C65.9193 39.7813 65.7966 39.3333 65.6686 39.024C65.5406 38.7147 65.3326 38.5013 65.0446 38.384C64.7566 38.2667 64.314 38.208 63.7166 38.208H62.7086V45.904C62.7086 46.384 62.746 46.7413 62.8206 46.976C62.8953 47.2 63.0446 47.3493 63.2686 47.424C63.4926 47.488 63.834 47.52 64.2926 47.52V48Z" fill="#00FF44"/>
</g>
<defs>
<filter id="filter0_f_61_920" x="0" y="0" width="86" height="86" filterUnits="userSpaceOnUse" color-interpolation-filters="sRGB">
<feFlood flood-opacity="0" result="BackgroundImageFix"/>
<feBlend mode="normal" in="SourceGraphic" in2="BackgroundImageFix" result="shape"/>
<feGaussianBlur stdDeviation="1.5" result="effect1_foregroundBlur_61_920"/>
</filter>
<filter id="filter1_iiii_61_920" x="5" y="4.99999" width="76" height="76" filterUnits="userSpaceOnUse" color-interpolation-filters="sRGB">
<feFlood flood-opacity="0" result="BackgroundImageFix"/>
<feBlend mode="normal" in="SourceGraphic" in2="BackgroundImageFix" result="shape"/>
<feColorMatrix in="SourceAlpha" type="matrix" values="0 0 0 0 0 0 0 0 0 0 0 0 0 0 0 0 0 0 127 0" result="hardAlpha"/>
<feOffset dx="-3"/>
<feGaussianBlur stdDeviation="2"/>
<feComposite in2="hardAlpha" operator="arithmetic" k2="-1" k3="1"/>
<feColorMatrix type="matrix" values="0 0 0 0 0.270833 0 0 0 0 0.264062 0 0 0 0 0.264062 0 0 0 1 0"/>
<feBlend mode="normal" in2="shape" result="effect1_innerShadow_61_920"/>
<feColorMatrix in="SourceAlpha" type="matrix" values="0 0 0 0 0 0 0 0 0 0 0 0 0 0 0 0 0 0 127 0" result="hardAlpha"/>
<feOffset dy="3"/>
<feGaussianBlur stdDeviation="2"/>
<feComposite in2="hardAlpha" operator="arithmetic" k2="-1" k3="1"/>
<feColorMatrix type="matrix" values="0 0 0 0 0.270588 0 0 0 0 0.262745 0 0 0 0 0.262745 0 0 0 1 0"/>
<feBlend mode="normal" in2="effect1_innerShadow_61_920" result="effect2_innerShadow_61_920"/>
<feColorMatrix in="SourceAlpha" type="matrix" values="0 0 0 0 0 0 0 0 0 0 0 0 0 0 0 0 0 0 127 0" result="hardAlpha"/>
<feOffset dy="-3"/>
<feGaussianBlur stdDeviation="2"/>
<feComposite in2="hardAlpha" operator="arithmetic" k2="-1" k3="1"/>
<feColorMatrix type="matrix" values="0 0 0 0 0.270588 0 0 0 0 0.262745 0 0 0 0 0.262745 0 0 0 1 0"/>
<feBlend mode="normal" in2="effect2_innerShadow_61_920" result="effect3_innerShadow_61_920"/>
<feColorMatrix in="SourceAlpha" type="matrix" values="0 0 0 0 0 0 0 0 0 0 0 0 0 0 0 0 0 0 127 0" result="hardAlpha"/>
<feOffset dx="3"/>
<feGaussianBlur stdDeviation="2"/>
<feComposite in2="hardAlpha" operator="arithmetic" k2="-1" k3="1"/>
<feColorMatrix type="matrix" values="0 0 0 0 0.270588 0 0 0 0 0.262745 0 0 0 0 0.262745 0 0 0 1 0"/>
<feBlend mode="normal" in2="effect3_innerShadow_61_920" result="effect4_innerShadow_61_920"/>
</filter>
<filter id="filter2_f_61_920" x="19.06" y="36.796" width="47.9726" height="11.944" filterUnits="userSpaceOnUse" color-interpolation-filters="sRGB">
<feFlood flood-opacity="0" result="BackgroundImageFix"/>
<feBlend mode="normal" in="SourceGraphic" in2="BackgroundImageFix" result="shape"/>
<feGaussianBlur stdDeviation="0.25" result="effect1_foregroundBlur_61_920"/>
</filter>
</defs>
</svg>
