<svg width="74" height="60" viewBox="0 0 74 60" fill="none" xmlns="http://www.w3.org/2000/svg">
<g filter="url(#filter0_iiii_549_93)">
<path d="M0 5C0 2.23858 2.23858 0 5 0H69C71.7614 0 74 2.23858 74 5V55C74 57.7614 71.7614 60 69 60H5C2.23858 60 0 57.7614 0 55V5Z" fill="#1D1D1D"/>
</g>
<path d="M5 0.25H69C71.6234 0.25 73.75 2.37665 73.75 5V55C73.75 57.6234 71.6234 59.75 69 59.75H5C2.37665 59.75 0.25 57.6234 0.25 55V5C0.25 2.37665 2.37665 0.25 5 0.25Z" stroke="black" stroke-opacity="0.15" stroke-width="0.5"/>
<g filter="url(#filter1_f_549_93)">
<ellipse cx="37" cy="45.5" rx="16" ry="4.5" fill="#D9D9D9"/>
</g>
<g filter="url(#filter2_f_549_93)">
<ellipse cx="37" cy="42.5" rx="16" ry="4.5" fill="#1D1D1D"/>
</g>
<g filter="url(#filter3_f_549_93)">
<ellipse cx="37" cy="29.5" rx="16" ry="4.5" fill="#D9D9D9"/>
</g>
<g filter="url(#filter4_f_549_93)">
<ellipse cx="37" cy="26.5" rx="16" ry="4.5" fill="#1D1D1D"/>
</g>
<g filter="url(#filter5_f_549_93)">
<ellipse cx="37" cy="22.5" rx="16" ry="4.5" fill="#D9D9D9"/>
</g>
<g filter="url(#filter6_f_549_93)">
<ellipse cx="37" cy="19.5" rx="16" ry="4.5" fill="#1D1D1D"/>
</g>
<g filter="url(#filter7_f_549_93)">
<ellipse cx="37" cy="15.5" rx="16" ry="4.5" fill="#D9D9D9"/>
</g>
<g filter="url(#filter8_f_549_93)">
<line x1="22.5" y1="15.5" x2="22.5" y2="45.5" stroke="#D9D9D9" stroke-width="3"/>
</g>
<g filter="url(#filter9_f_549_93)">
<line x1="51.5" y1="15.5" x2="51.5" y2="45.5" stroke="#D9D9D9" stroke-width="3"/>
</g>
<rect x="17" y="9" width="17" height="18" fill="#1D1D1D"/>
<path d="M13.2 17H30L25.8 22H9L13.2 17Z" fill="#D9D9D9"/>
<path d="M13.2 16H30L25.8 21H9L13.2 16Z" fill="#1D1D1D"/>
<path d="M13.2 14H30L25.8 19H9L13.2 14Z" fill="#D9D9D9"/>
<path d="M13.2 13H30L25.8 18H9L13.2 13Z" fill="#1D1D1D"/>
<path d="M13.2 11H30L25.8 16H9L13.2 11Z" fill="#D9D9D9"/>
<defs>
<filter id="filter0_iiii_549_93" x="-1" y="-3" width="76" height="66" filterUnits="userSpaceOnUse" color-interpolation-filters="sRGB">
<feFlood flood-opacity="0" result="BackgroundImageFix"/>
<feBlend mode="normal" in="SourceGraphic" in2="BackgroundImageFix" result="shape"/>
<feColorMatrix in="SourceAlpha" type="matrix" values="0 0 0 0 0 0 0 0 0 0 0 0 0 0 0 0 0 0 127 0" result="hardAlpha"/>
<feOffset dy="3"/>
<feGaussianBlur stdDeviation="2"/>
<feComposite in2="hardAlpha" operator="arithmetic" k2="-1" k3="1"/>
<feColorMatrix type="matrix" values="0 0 0 0 0.270588 0 0 0 0 0.262745 0 0 0 0 0.262745 0 0 0 1 0"/>
<feBlend mode="normal" in2="shape" result="effect1_innerShadow_549_93"/>
<feColorMatrix in="SourceAlpha" type="matrix" values="0 0 0 0 0 0 0 0 0 0 0 0 0 0 0 0 0 0 127 0" result="hardAlpha"/>
<feOffset dy="-3"/>
<feGaussianBlur stdDeviation="2"/>
<feComposite in2="hardAlpha" operator="arithmetic" k2="-1" k3="1"/>
<feColorMatrix type="matrix" values="0 0 0 0 0.270588 0 0 0 0 0.262745 0 0 0 0 0.262745 0 0 0 1 0"/>
<feBlend mode="normal" in2="effect1_innerShadow_549_93" result="effect2_innerShadow_549_93"/>
<feColorMatrix in="SourceAlpha" type="matrix" values="0 0 0 0 0 0 0 0 0 0 0 0 0 0 0 0 0 0 127 0" result="hardAlpha"/>
<feOffset dx="1"/>
<feGaussianBlur stdDeviation="2"/>
<feComposite in2="hardAlpha" operator="arithmetic" k2="-1" k3="1"/>
<feColorMatrix type="matrix" values="0 0 0 0 0.113725 0 0 0 0 0.113725 0 0 0 0 0.113725 0 0 0 1 0"/>
<feBlend mode="normal" in2="effect2_innerShadow_549_93" result="effect3_innerShadow_549_93"/>
<feColorMatrix in="SourceAlpha" type="matrix" values="0 0 0 0 0 0 0 0 0 0 0 0 0 0 0 0 0 0 127 0" result="hardAlpha"/>
<feOffset dx="-1"/>
<feGaussianBlur stdDeviation="2"/>
<feComposite in2="hardAlpha" operator="arithmetic" k2="-1" k3="1"/>
<feColorMatrix type="matrix" values="0 0 0 0 0.113725 0 0 0 0 0.113725 0 0 0 0 0.113725 0 0 0 1 0"/>
<feBlend mode="normal" in2="effect3_innerShadow_549_93" result="effect4_innerShadow_549_93"/>
</filter>
<filter id="filter1_f_549_93" x="20.9" y="40.9" width="32.2" height="9.2" filterUnits="userSpaceOnUse" color-interpolation-filters="sRGB">
<feFlood flood-opacity="0" result="BackgroundImageFix"/>
<feBlend mode="normal" in="SourceGraphic" in2="BackgroundImageFix" result="shape"/>
<feGaussianBlur stdDeviation="0.05" result="effect1_foregroundBlur_549_93"/>
</filter>
<filter id="filter2_f_549_93" x="20.9" y="37.9" width="32.2" height="9.2" filterUnits="userSpaceOnUse" color-interpolation-filters="sRGB">
<feFlood flood-opacity="0" result="BackgroundImageFix"/>
<feBlend mode="normal" in="SourceGraphic" in2="BackgroundImageFix" result="shape"/>
<feGaussianBlur stdDeviation="0.05" result="effect1_foregroundBlur_549_93"/>
</filter>
<filter id="filter3_f_549_93" x="20.9" y="24.9" width="32.2" height="9.2" filterUnits="userSpaceOnUse" color-interpolation-filters="sRGB">
<feFlood flood-opacity="0" result="BackgroundImageFix"/>
<feBlend mode="normal" in="SourceGraphic" in2="BackgroundImageFix" result="shape"/>
<feGaussianBlur stdDeviation="0.05" result="effect1_foregroundBlur_549_93"/>
</filter>
<filter id="filter4_f_549_93" x="20.9" y="21.9" width="32.2" height="9.2" filterUnits="userSpaceOnUse" color-interpolation-filters="sRGB">
<feFlood flood-opacity="0" result="BackgroundImageFix"/>
<feBlend mode="normal" in="SourceGraphic" in2="BackgroundImageFix" result="shape"/>
<feGaussianBlur stdDeviation="0.05" result="effect1_foregroundBlur_549_93"/>
</filter>
<filter id="filter5_f_549_93" x="20.9" y="17.9" width="32.2" height="9.2" filterUnits="userSpaceOnUse" color-interpolation-filters="sRGB">
<feFlood flood-opacity="0" result="BackgroundImageFix"/>
<feBlend mode="normal" in="SourceGraphic" in2="BackgroundImageFix" result="shape"/>
<feGaussianBlur stdDeviation="0.05" result="effect1_foregroundBlur_549_93"/>
</filter>
<filter id="filter6_f_549_93" x="20.9" y="14.9" width="32.2" height="9.2" filterUnits="userSpaceOnUse" color-interpolation-filters="sRGB">
<feFlood flood-opacity="0" result="BackgroundImageFix"/>
<feBlend mode="normal" in="SourceGraphic" in2="BackgroundImageFix" result="shape"/>
<feGaussianBlur stdDeviation="0.05" result="effect1_foregroundBlur_549_93"/>
</filter>
<filter id="filter7_f_549_93" x="20.9" y="10.9" width="32.2" height="9.2" filterUnits="userSpaceOnUse" color-interpolation-filters="sRGB">
<feFlood flood-opacity="0" result="BackgroundImageFix"/>
<feBlend mode="normal" in="SourceGraphic" in2="BackgroundImageFix" result="shape"/>
<feGaussianBlur stdDeviation="0.05" result="effect1_foregroundBlur_549_93"/>
</filter>
<filter id="filter8_f_549_93" x="20.9" y="15.4" width="3.2" height="30.2" filterUnits="userSpaceOnUse" color-interpolation-filters="sRGB">
<feFlood flood-opacity="0" result="BackgroundImageFix"/>
<feBlend mode="normal" in="SourceGraphic" in2="BackgroundImageFix" result="shape"/>
<feGaussianBlur stdDeviation="0.05" result="effect1_foregroundBlur_549_93"/>
</filter>
<filter id="filter9_f_549_93" x="49.9" y="15.4" width="3.2" height="30.2" filterUnits="userSpaceOnUse" color-interpolation-filters="sRGB">
<feFlood flood-opacity="0" result="BackgroundImageFix"/>
<feBlend mode="normal" in="SourceGraphic" in2="BackgroundImageFix" result="shape"/>
<feGaussianBlur stdDeviation="0.05" result="effect1_foregroundBlur_549_93"/>
</filter>
</defs>
</svg>
