<svg width="74" height="60" viewBox="0 0 74 60" fill="none" xmlns="http://www.w3.org/2000/svg">
<g filter="url(#filter0_iiii_550_2)">
<path d="M0 5C0 2.23858 2.23858 0 5 0H69C71.7614 0 74 2.23858 74 5V55C74 57.7614 71.7614 60 69 60H5C2.23858 60 0 57.7614 0 55V5Z" fill="#1D1D1D"/>
</g>
<path d="M5 0.25H69C71.6234 0.25 73.75 2.37665 73.75 5V55C73.75 57.6234 71.6234 59.75 69 59.75H5C2.37665 59.75 0.25 57.6234 0.25 55V5C0.25 2.37665 2.37665 0.25 5 0.25Z" stroke="black" stroke-opacity="0.15" stroke-width="0.5"/>
<g filter="url(#filter1_f_550_2)">
<ellipse cx="37" cy="45.5" rx="16" ry="4.5" fill="#D9D9D9"/>
</g>
<g filter="url(#filter2_f_550_2)">
<ellipse cx="37" cy="42.5" rx="16" ry="4.5" fill="#1D1D1D"/>
</g>
<g filter="url(#filter3_f_550_2)">
<ellipse cx="37" cy="29.5" rx="16" ry="4.5" fill="#D9D9D9"/>
</g>
<g filter="url(#filter4_f_550_2)">
<ellipse cx="37" cy="26.5" rx="16" ry="4.5" fill="#1D1D1D"/>
</g>
<g filter="url(#filter5_f_550_2)">
<ellipse cx="37" cy="22.5" rx="16" ry="4.5" fill="#D9D9D9"/>
</g>
<g filter="url(#filter6_f_550_2)">
<ellipse cx="37" cy="19.5" rx="16" ry="4.5" fill="#1D1D1D"/>
</g>
<g filter="url(#filter7_f_550_2)">
<ellipse cx="37" cy="15.5" rx="16" ry="4.5" fill="#D9D9D9"/>
</g>
<g filter="url(#filter8_f_550_2)">
<line x1="22.5" y1="15.5" x2="22.5" y2="45.5" stroke="#D9D9D9" stroke-width="3"/>
</g>
<g filter="url(#filter9_f_550_2)">
<line x1="51.5" y1="15.5" x2="51.5" y2="45.5" stroke="#D9D9D9" stroke-width="3"/>
</g>
<rect x="17" y="10" width="18" height="17" fill="#1D1D1D"/>
<g filter="url(#filter10_f_550_2)">
<path d="M32 7.50985C32 7.28111 31.7543 7.13652 31.5543 7.24761L23.0514 11.9714C23.0197 11.9891 23 12.0225 23 12.0588V24.8252C23 24.9025 23.084 24.9506 23.1507 24.9114L31.8521 19.7929C31.9437 19.739 32 19.6406 32 19.5343V7.50985Z" fill="#D9D9D9"/>
</g>
<g filter="url(#filter11_f_550_2)">
<path d="M22.5 12.1C22.5 12.0448 22.4552 12 22.4 12H19.8C19.6343 12 19.5 12.1343 19.5 12.3V24.7C19.5 24.8657 19.6343 25 19.8 25H22.4C22.4552 25 22.5 24.9552 22.5 24.9V12.1Z" fill="#D9D9D9"/>
</g>
<g filter="url(#filter12_f_550_2)">
<path d="M30.6673 7.18716C30.757 7.13671 30.7212 7 30.6182 7H27.5786C27.5271 7 27.4764 7.01327 27.4315 7.03853L19.8327 11.3128C19.743 11.3633 19.7788 11.5 19.8818 11.5H22.9738C22.991 11.5 23.0079 11.4956 23.0228 11.4872L30.6673 7.18716Z" fill="#D9D9D9"/>
</g>
<g filter="url(#filter13_f_550_2)">
<ellipse cx="24.5" cy="13.65" rx="0.5" ry="0.65" fill="#1D1D1D"/>
</g>
<g filter="url(#filter14_f_550_2)">
<ellipse cx="24.5" cy="22.65" rx="0.5" ry="0.65" fill="#1D1D1D"/>
</g>
<g filter="url(#filter15_f_550_2)">
<ellipse cx="30.5" cy="9.65" rx="0.5" ry="0.65" fill="#1D1D1D"/>
</g>
<g filter="url(#filter16_f_550_2)">
<ellipse cx="30.5" cy="18.65" rx="0.5" ry="0.65" fill="#1D1D1D"/>
</g>
<defs>
<filter id="filter0_iiii_550_2" x="-1" y="-3" width="76" height="66" filterUnits="userSpaceOnUse" color-interpolation-filters="sRGB">
<feFlood flood-opacity="0" result="BackgroundImageFix"/>
<feBlend mode="normal" in="SourceGraphic" in2="BackgroundImageFix" result="shape"/>
<feColorMatrix in="SourceAlpha" type="matrix" values="0 0 0 0 0 0 0 0 0 0 0 0 0 0 0 0 0 0 127 0" result="hardAlpha"/>
<feOffset dy="3"/>
<feGaussianBlur stdDeviation="2"/>
<feComposite in2="hardAlpha" operator="arithmetic" k2="-1" k3="1"/>
<feColorMatrix type="matrix" values="0 0 0 0 0.270588 0 0 0 0 0.262745 0 0 0 0 0.262745 0 0 0 1 0"/>
<feBlend mode="normal" in2="shape" result="effect1_innerShadow_550_2"/>
<feColorMatrix in="SourceAlpha" type="matrix" values="0 0 0 0 0 0 0 0 0 0 0 0 0 0 0 0 0 0 127 0" result="hardAlpha"/>
<feOffset dy="-3"/>
<feGaussianBlur stdDeviation="2"/>
<feComposite in2="hardAlpha" operator="arithmetic" k2="-1" k3="1"/>
<feColorMatrix type="matrix" values="0 0 0 0 0.270588 0 0 0 0 0.262745 0 0 0 0 0.262745 0 0 0 1 0"/>
<feBlend mode="normal" in2="effect1_innerShadow_550_2" result="effect2_innerShadow_550_2"/>
<feColorMatrix in="SourceAlpha" type="matrix" values="0 0 0 0 0 0 0 0 0 0 0 0 0 0 0 0 0 0 127 0" result="hardAlpha"/>
<feOffset dx="1"/>
<feGaussianBlur stdDeviation="2"/>
<feComposite in2="hardAlpha" operator="arithmetic" k2="-1" k3="1"/>
<feColorMatrix type="matrix" values="0 0 0 0 0.113725 0 0 0 0 0.113725 0 0 0 0 0.113725 0 0 0 1 0"/>
<feBlend mode="normal" in2="effect2_innerShadow_550_2" result="effect3_innerShadow_550_2"/>
<feColorMatrix in="SourceAlpha" type="matrix" values="0 0 0 0 0 0 0 0 0 0 0 0 0 0 0 0 0 0 127 0" result="hardAlpha"/>
<feOffset dx="-1"/>
<feGaussianBlur stdDeviation="2"/>
<feComposite in2="hardAlpha" operator="arithmetic" k2="-1" k3="1"/>
<feColorMatrix type="matrix" values="0 0 0 0 0.113725 0 0 0 0 0.113725 0 0 0 0 0.113725 0 0 0 1 0"/>
<feBlend mode="normal" in2="effect3_innerShadow_550_2" result="effect4_innerShadow_550_2"/>
</filter>
<filter id="filter1_f_550_2" x="20.9" y="40.9" width="32.2" height="9.2" filterUnits="userSpaceOnUse" color-interpolation-filters="sRGB">
<feFlood flood-opacity="0" result="BackgroundImageFix"/>
<feBlend mode="normal" in="SourceGraphic" in2="BackgroundImageFix" result="shape"/>
<feGaussianBlur stdDeviation="0.05" result="effect1_foregroundBlur_550_2"/>
</filter>
<filter id="filter2_f_550_2" x="20.9" y="37.9" width="32.2" height="9.2" filterUnits="userSpaceOnUse" color-interpolation-filters="sRGB">
<feFlood flood-opacity="0" result="BackgroundImageFix"/>
<feBlend mode="normal" in="SourceGraphic" in2="BackgroundImageFix" result="shape"/>
<feGaussianBlur stdDeviation="0.05" result="effect1_foregroundBlur_550_2"/>
</filter>
<filter id="filter3_f_550_2" x="20.9" y="24.9" width="32.2" height="9.2" filterUnits="userSpaceOnUse" color-interpolation-filters="sRGB">
<feFlood flood-opacity="0" result="BackgroundImageFix"/>
<feBlend mode="normal" in="SourceGraphic" in2="BackgroundImageFix" result="shape"/>
<feGaussianBlur stdDeviation="0.05" result="effect1_foregroundBlur_550_2"/>
</filter>
<filter id="filter4_f_550_2" x="20.9" y="21.9" width="32.2" height="9.2" filterUnits="userSpaceOnUse" color-interpolation-filters="sRGB">
<feFlood flood-opacity="0" result="BackgroundImageFix"/>
<feBlend mode="normal" in="SourceGraphic" in2="BackgroundImageFix" result="shape"/>
<feGaussianBlur stdDeviation="0.05" result="effect1_foregroundBlur_550_2"/>
</filter>
<filter id="filter5_f_550_2" x="20.9" y="17.9" width="32.2" height="9.2" filterUnits="userSpaceOnUse" color-interpolation-filters="sRGB">
<feFlood flood-opacity="0" result="BackgroundImageFix"/>
<feBlend mode="normal" in="SourceGraphic" in2="BackgroundImageFix" result="shape"/>
<feGaussianBlur stdDeviation="0.05" result="effect1_foregroundBlur_550_2"/>
</filter>
<filter id="filter6_f_550_2" x="20.9" y="14.9" width="32.2" height="9.2" filterUnits="userSpaceOnUse" color-interpolation-filters="sRGB">
<feFlood flood-opacity="0" result="BackgroundImageFix"/>
<feBlend mode="normal" in="SourceGraphic" in2="BackgroundImageFix" result="shape"/>
<feGaussianBlur stdDeviation="0.05" result="effect1_foregroundBlur_550_2"/>
</filter>
<filter id="filter7_f_550_2" x="20.9" y="10.9" width="32.2" height="9.2" filterUnits="userSpaceOnUse" color-interpolation-filters="sRGB">
<feFlood flood-opacity="0" result="BackgroundImageFix"/>
<feBlend mode="normal" in="SourceGraphic" in2="BackgroundImageFix" result="shape"/>
<feGaussianBlur stdDeviation="0.05" result="effect1_foregroundBlur_550_2"/>
</filter>
<filter id="filter8_f_550_2" x="20.9" y="15.4" width="3.2" height="30.2" filterUnits="userSpaceOnUse" color-interpolation-filters="sRGB">
<feFlood flood-opacity="0" result="BackgroundImageFix"/>
<feBlend mode="normal" in="SourceGraphic" in2="BackgroundImageFix" result="shape"/>
<feGaussianBlur stdDeviation="0.05" result="effect1_foregroundBlur_550_2"/>
</filter>
<filter id="filter9_f_550_2" x="49.9" y="15.4" width="3.2" height="30.2" filterUnits="userSpaceOnUse" color-interpolation-filters="sRGB">
<feFlood flood-opacity="0" result="BackgroundImageFix"/>
<feBlend mode="normal" in="SourceGraphic" in2="BackgroundImageFix" result="shape"/>
<feGaussianBlur stdDeviation="0.05" result="effect1_foregroundBlur_550_2"/>
</filter>
<filter id="filter10_f_550_2" x="22.9" y="7.10898" width="9.2" height="17.9168" filterUnits="userSpaceOnUse" color-interpolation-filters="sRGB">
<feFlood flood-opacity="0" result="BackgroundImageFix"/>
<feBlend mode="normal" in="SourceGraphic" in2="BackgroundImageFix" result="shape"/>
<feGaussianBlur stdDeviation="0.05" result="effect1_foregroundBlur_550_2"/>
</filter>
<filter id="filter11_f_550_2" x="19.4" y="11.9" width="3.2" height="13.2" filterUnits="userSpaceOnUse" color-interpolation-filters="sRGB">
<feFlood flood-opacity="0" result="BackgroundImageFix"/>
<feBlend mode="normal" in="SourceGraphic" in2="BackgroundImageFix" result="shape"/>
<feGaussianBlur stdDeviation="0.05" result="effect1_foregroundBlur_550_2"/>
</filter>
<filter id="filter12_f_550_2" x="19.6816" y="6.9" width="11.1368" height="4.7" filterUnits="userSpaceOnUse" color-interpolation-filters="sRGB">
<feFlood flood-opacity="0" result="BackgroundImageFix"/>
<feBlend mode="normal" in="SourceGraphic" in2="BackgroundImageFix" result="shape"/>
<feGaussianBlur stdDeviation="0.05" result="effect1_foregroundBlur_550_2"/>
</filter>
<filter id="filter13_f_550_2" x="23.9" y="12.9" width="1.2" height="1.4998" filterUnits="userSpaceOnUse" color-interpolation-filters="sRGB">
<feFlood flood-opacity="0" result="BackgroundImageFix"/>
<feBlend mode="normal" in="SourceGraphic" in2="BackgroundImageFix" result="shape"/>
<feGaussianBlur stdDeviation="0.05" result="effect1_foregroundBlur_550_2"/>
</filter>
<filter id="filter14_f_550_2" x="23.9" y="21.9" width="1.2" height="1.4998" filterUnits="userSpaceOnUse" color-interpolation-filters="sRGB">
<feFlood flood-opacity="0" result="BackgroundImageFix"/>
<feBlend mode="normal" in="SourceGraphic" in2="BackgroundImageFix" result="shape"/>
<feGaussianBlur stdDeviation="0.05" result="effect1_foregroundBlur_550_2"/>
</filter>
<filter id="filter15_f_550_2" x="29.9" y="8.9" width="1.2" height="1.4998" filterUnits="userSpaceOnUse" color-interpolation-filters="sRGB">
<feFlood flood-opacity="0" result="BackgroundImageFix"/>
<feBlend mode="normal" in="SourceGraphic" in2="BackgroundImageFix" result="shape"/>
<feGaussianBlur stdDeviation="0.05" result="effect1_foregroundBlur_550_2"/>
</filter>
<filter id="filter16_f_550_2" x="29.9" y="17.9" width="1.2" height="1.4998" filterUnits="userSpaceOnUse" color-interpolation-filters="sRGB">
<feFlood flood-opacity="0" result="BackgroundImageFix"/>
<feBlend mode="normal" in="SourceGraphic" in2="BackgroundImageFix" result="shape"/>
<feGaussianBlur stdDeviation="0.05" result="effect1_foregroundBlur_550_2"/>
</filter>
</defs>
</svg>
