<?xml version="1.0" standalone="no"?>
<!DOCTYPE svg PUBLIC "-//W3C//DTD SVG 20010904//EN"
 "http://www.w3.org/TR/2001/REC-SVG-20010904/DTD/svg10.dtd">
<svg version="1.0" xmlns="http://www.w3.org/2000/svg"
 width="810.000000pt" height="1280.000000pt" viewBox="0 0 810.000000 1280.000000"
 preserveAspectRatio="xMidYMid meet">
<metadata>
Created by potrace 1.15, written by Peter Selinger 2001-2017
</metadata>
<g transform="translate(0.000000,1280.000000) scale(0.100000,-0.100000)"
fill="#000000" stroke="none">
<path d="M5445 12794 c-269 -30 -483 -116 -633 -258 -100 -94 -8 80 -1162
-2211 -205 -407 -538 -1068 -740 -1470 -202 -401 -679 -1349 -1060 -2105 -381
-756 -887 -1762 -1125 -2235 -272 -540 -441 -886 -453 -930 -27 -93 -45 -235
-37 -299 3 -28 19 -247 35 -486 17 -239 48 -696 70 -1015 23 -319 45 -645 50
-725 5 -80 14 -215 20 -300 6 -85 12 -177 13 -204 l2 -49 -100 -22 c-230 -50
-325 -101 -325 -175 0 -74 94 -125 325 -175 821 -178 2959 -178 3780 0 231 50
325 101 325 175 0 74 -94 125 -325 175 -478 104 -1535 158 -2445 125 -287 -10
-739 -38 -752 -46 -5 -3 -8 -2 -8 3 1 4 472 282 1048 618 576 335 1074 627
1107 649 80 53 168 137 220 211 23 33 90 146 147 250 169 306 1686 3042 3179
5735 760 1372 1402 2533 1426 2580 212 424 -52 1035 -660 1523 -407 327 -900
551 -1402 638 -117 20 -422 33 -520 23z"/>
</g>
</svg>
